<?xml version="1.0" encoding="iso-8859-1"?>
<!-- Generator: Adobe Illustrator 19.1.1, SVG Export Plug-In . SVG Version: 6.00 Build 0)  -->
<svg version="1.1" id="Layer_1" xmlns="http://www.w3.org/2000/svg" xmlns:xlink="http://www.w3.org/1999/xlink" x="0px" y="0px"
	 viewBox="0 0 40 40" style="enable-background:new 0 0 40 40;" xml:space="preserve">
<g>
	<rect x="2.5" y="2.5" style="fill:#B0C1D4;" width="35" height="35"/>
	<g>
		<path style="fill:#66798F;" d="M37,3v34H3V3H37 M38,2H2v36h36V2L38,2z"/>
	</g>
</g>
<g>
	<rect x="2.5" y="2.5" style="fill:#F78F8F;" width="17" height="35"/>
	<g>
		<path style="fill:#66798F;" d="M19,3v34H3V3H19 M20,2H2v36h18V2L20,2z"/>
	</g>
</g>
<g>
	<rect x="2.5" y="2.5" style="fill:#DCD5F2;" width="17" height="14"/>
	<g>
		<path style="fill:#66798F;" d="M19,3v13H3V3H19 M20,2H2v15h18V2L20,2z"/>
	</g>
</g>
<g>
	<rect x="19.5" y="2.5" style="fill:#BAE0BD;" width="18" height="35"/>
	<g>
		<path style="fill:#66798F;" d="M37,3v34H20V3H37 M38,2H19v36h19V2L38,2z"/>
	</g>
</g>
<g>
	<rect x="19.5" y="23.5" style="fill:#FFEEA3;" width="18" height="14"/>
	<g>
		<path style="fill:#66798F;" d="M37,24v13H20V24H37 M38,23H19v15h19V23L38,23z"/>
	</g>
</g>
</svg>
